<?xml version="1.0" encoding="utf-8"?>
<!-- Generator: Adobe Illustrator 19.0.0, SVG Export Plug-In . SVG Version: 6.00 Build 0)  -->
<svg version="1.1" id="Layer_1" xmlns="http://www.w3.org/2000/svg" xmlns:xlink="http://www.w3.org/1999/xlink" x="0px" y="0px"
	 viewBox="-592 82.1 1169 593.9" style="enable-background:new -592 82.1 1169 593.9;" xml:space="preserve">
<style type="text/css">
	.st0{fill:#FFA500;}
</style>
<path class="st0" d="M403.6,165.2l90.2,90.2c3.8,3.8,3.8,10,0,13.8L275.4,487.6l-92.8,10.3c-12.4,1.4-22.9-9.1-21.5-21.5l10.3-92.8
	l218.4-218.4C393.6,161.4,399.8,161.4,403.6,165.2L403.6,165.2z M565.6,142.3l-48.8-48.8c-15.2-15.2-39.9-15.2-55.2,0l-35.4,35.4
	c-3.8,3.8-3.8,10,0,13.8l90.2,90.2c3.8,3.8,10,3.8,13.8,0l35.4-35.4C580.8,182.2,580.8,157.5,565.6,142.3z M358.6,510.2V612h-792.1
	V292h568.9c7.9,0,15.3-1.3,21-3.5l99-40c18.8-7.6,5.4-20.5-21-20.5h-707.5c-65.6,0-118.8,21.5-118.8,48v352c0,26.5,53.2,48,118.8,48
	h871.4c65.6,0,118.8-21.5,118.8-48V470.2c0-10.7-31.9-16-50.7-8.5l-99,40C361.8,504,358.6,507,358.6,510.2z"/>
</svg>
